<mxfile host="app.diagrams.net" modified="2023-11-08T12:45:19.529Z" agent="Mozilla/5.0 (Windows NT 10.0; Win64; x64; rv:109.0) Gecko/20100101 Firefox/119.0" etag="IMR_ePlJe0yd0KwL60cY" version="22.0.8" type="device">
  <diagram name="Strona-1" id="jKMP8IOHKPs3lTIb-eEo">
    <mxGraphModel dx="913" dy="492" grid="1" gridSize="10" guides="1" tooltips="1" connect="1" arrows="1" fold="1" page="1" pageScale="1" pageWidth="827" pageHeight="1169" math="0" shadow="0">
      <root>
        <mxCell id="0" />
        <mxCell id="1" parent="0" />
        <mxCell id="suqUIS_QS5sBQaWALe-S-1" value="" style="rounded=0;whiteSpace=wrap;html=1;" vertex="1" parent="1">
          <mxGeometry x="290" y="100" width="260" height="330" as="geometry" />
        </mxCell>
        <mxCell id="suqUIS_QS5sBQaWALe-S-2" value="&lt;font style=&quot;font-size: 18px;&quot;&gt;Nazwa gatunku&lt;/font&gt;" style="text;html=1;strokeColor=none;fillColor=none;align=center;verticalAlign=middle;whiteSpace=wrap;rounded=0;" vertex="1" parent="1">
          <mxGeometry x="334" y="110" width="170" height="30" as="geometry" />
        </mxCell>
        <mxCell id="suqUIS_QS5sBQaWALe-S-3" value="&lt;font style=&quot;font-size: 14px;&quot;&gt;Przyjazna nazwa rośliny&lt;/font&gt;" style="text;html=1;strokeColor=none;fillColor=none;align=center;verticalAlign=middle;whiteSpace=wrap;rounded=0;" vertex="1" parent="1">
          <mxGeometry x="329" y="140" width="180" height="30" as="geometry" />
        </mxCell>
        <mxCell id="suqUIS_QS5sBQaWALe-S-4" value="Data następnego podlewania:" style="text;html=1;strokeColor=none;fillColor=none;align=center;verticalAlign=middle;whiteSpace=wrap;rounded=0;" vertex="1" parent="1">
          <mxGeometry x="314" y="190" width="210" height="30" as="geometry" />
        </mxCell>
        <mxCell id="suqUIS_QS5sBQaWALe-S-5" value="Data następnego nawożenia:" style="text;html=1;strokeColor=none;fillColor=none;align=center;verticalAlign=middle;whiteSpace=wrap;rounded=0;" vertex="1" parent="1">
          <mxGeometry x="314" y="220" width="210" height="30" as="geometry" />
        </mxCell>
        <mxCell id="suqUIS_QS5sBQaWALe-S-6" value="Opcjonalny opis" style="text;html=1;strokeColor=none;fillColor=none;align=center;verticalAlign=middle;whiteSpace=wrap;rounded=0;" vertex="1" parent="1">
          <mxGeometry x="359" y="270" width="120" height="30" as="geometry" />
        </mxCell>
        <mxCell id="suqUIS_QS5sBQaWALe-S-7" value="Ikona X" style="rounded=0;whiteSpace=wrap;html=1;imageWidth=24;" vertex="1" parent="1">
          <mxGeometry x="300" y="340" width="47" height="47" as="geometry" />
        </mxCell>
        <mxCell id="suqUIS_QS5sBQaWALe-S-8" value="&lt;font style=&quot;font-size: 11px;&quot;&gt;Ikona ołówka&lt;/font&gt;" style="rounded=0;whiteSpace=wrap;html=1;" vertex="1" parent="1">
          <mxGeometry x="359" y="340" width="47" height="47" as="geometry" />
        </mxCell>
        <mxCell id="suqUIS_QS5sBQaWALe-S-9" value="&lt;font style=&quot;font-size: 11px;&quot;&gt;Ikona konewki&lt;/font&gt;" style="rounded=0;whiteSpace=wrap;html=1;" vertex="1" parent="1">
          <mxGeometry x="432" y="340" width="47" height="47" as="geometry" />
        </mxCell>
        <mxCell id="suqUIS_QS5sBQaWALe-S-10" value="&lt;font style=&quot;font-size: 11px;&quot;&gt;Ikona nawozu&lt;/font&gt;" style="rounded=0;whiteSpace=wrap;html=1;" vertex="1" parent="1">
          <mxGeometry x="490" y="340" width="47" height="47" as="geometry" />
        </mxCell>
      </root>
    </mxGraphModel>
  </diagram>
</mxfile>
